<?xml version="1.0" standalone="no"?><svg xmlns="http://www.w3.org/2000/svg" viewBox="0 0 1440 320"><path fill="#ffd700" fill-opacity="1" d="M0,128L12,112C24,96,48,64,72,58.7C96,53,120,75,144,85.3C168,96,192,96,216,101.3C240,107,264,117,288,106.7C312,96,336,64,360,53.3C384,43,408,53,432,90.7C456,128,480,192,504,229.3C528,267,552,277,576,266.7C600,256,624,224,648,186.7C672,149,696,107,720,106.7C744,107,768,149,792,154.7C816,160,840,128,864,112C888,96,912,96,936,106.7C960,117,984,139,1008,138.7C1032,139,1056,117,1080,106.7C1104,96,1128,96,1152,90.7C1176,85,1200,75,1224,85.3C1248,96,1272,128,1296,133.3C1320,139,1344,117,1368,101.3C1392,85,1416,75,1428,69.3L1440,64L1440,0L1428,0C1416,0,1392,0,1368,0C1344,0,1320,0,1296,0C1272,0,1248,0,1224,0C1200,0,1176,0,1152,0C1128,0,1104,0,1080,0C1056,0,1032,0,1008,0C984,0,960,0,936,0C912,0,888,0,864,0C840,0,816,0,792,0C768,0,744,0,720,0C696,0,672,0,648,0C624,0,600,0,576,0C552,0,528,0,504,0C480,0,456,0,432,0C408,0,384,0,360,0C336,0,312,0,288,0C264,0,240,0,216,0C192,0,168,0,144,0C120,0,96,0,72,0C48,0,24,0,12,0L0,0Z"></path></svg>